<?xml version="1.0" standalone="no"?>
<!DOCTYPE svg PUBLIC "-//W3C//DTD SVG 20010904//EN"
 "http://www.w3.org/TR/2001/REC-SVG-20010904/DTD/svg10.dtd">
<svg version="1.0" xmlns="http://www.w3.org/2000/svg"
 width="1280.000000pt" height="1163.000000pt" viewBox="0 0 1280.000000 1163.000000"
 preserveAspectRatio="xMidYMid meet">
<g transform="translate(0.000000,1163.000000) scale(0.100000,-0.100000)"
fill="#000000" stroke="none">
<path d="M5885 11270 c-722 -70 -1242 -210 -1900 -510 -366 -167 -638 -332
-1040 -633 -360 -270 -766 -673 -1026 -1022 -140 -186 -229 -313 -229 -325 0
-5 -13 -24 -29 -42 -67 -76 -199 -305 -340 -586 -160 -319 -255 -564 -330
-849 -65 -249 -83 -341 -125 -638 -102 -723 -108 -1054 -30 -1665 63 -497 168
-889 368 -1361 244 -580 507 -1003 907 -1464 155 -179 485 -494 704 -672 88
-72 471 -330 618 -417 486 -287 891 -456 1512 -631 288 -81 729 -143 1170
-164 329 -16 871 23 1190 84 450 87 941 247 1316 429 806 389 1475 890 1949
1461 318 383 535 714 750 1145 218 435 298 650 415 1105 125 489 190 1097 164
1525 -19 321 -81 770 -135 985 -113 448 -322 1002 -507 1340 -291 534 -650
997 -1090 1403 -505 468 -973 775 -1607 1055 -416 183 -1089 366 -1576 428
-145 18 -229 22 -589 24 -231 2 -460 -1 -510 -5z m128 -1004 c3 -8 22 -16 44
-18 32 -2 39 -7 41 -28 2 -14 8 -30 13 -36 8 -10 -7 -342 -26 -549 -5 -53 -18
-308 -55 -1055 -24 -481 -42 -773 -55 -890 -14 -116 -55 -283 -74 -294 -12 -8
-160 129 -196 182 -80 118 -294 476 -545 912 -150 261 -329 566 -397 678 -198
326 -323 549 -323 577 0 15 -5 35 -10 46 -9 16 -7 21 15 31 16 7 25 19 25 33
0 18 16 30 88 62 185 86 674 240 862 272 69 12 152 28 185 37 52 13 319 50
381 53 12 1 24 -5 27 -13z m915 -11 c172 -20 350 -53 562 -105 215 -53 352
-97 590 -187 252 -95 250 -95 250 -100 0 -3 -14 -23 -31 -44 -20 -26 -29 -47
-26 -60 4 -15 -105 -185 -407 -637 -228 -339 -518 -779 -646 -977 -128 -198
-265 -407 -304 -465 -73 -109 -237 -285 -258 -278 -7 3 -20 30 -30 61 -40 132
-41 174 -24 1272 9 578 16 1141 16 1252 0 201 0 202 22 205 17 2 22 10 23 33
0 28 2 30 38 28 20 -1 37 2 37 7 0 13 28 13 188 -5z m-2968 -726 c0 -4 9 -10
19 -14 11 -3 23 -14 26 -24 22 -71 586 -1146 865 -1651 395 -714 403 -731 394
-787 l-7 -43 -41 6 c-129 18 -291 97 -854 418 -612 348 -1575 876 -1599 876
-7 0 -19 14 -28 30 -9 17 -22 30 -30 30 -17 0 -20 16 -5 25 5 3 35 56 67 117
33 66 81 141 117 182 106 125 357 375 496 495 223 192 437 346 468 337 9 -2
33 6 52 19 32 21 36 22 48 7 6 -9 12 -19 12 -23z m4868 15 c35 -21 49 -24 62
-16 30 18 251 -137 505 -354 138 -117 448 -431 440 -445 -3 -4 16 -34 43 -66
26 -32 78 -99 115 -149 79 -108 85 -137 33 -159 -19 -8 -39 -21 -43 -28 -4 -7
-161 -91 -348 -186 -620 -316 -1347 -692 -1560 -807 -267 -143 -459 -236 -557
-269 -83 -27 -210 -56 -217 -49 -9 9 73 238 114 317 52 102 81 149 672 1122
264 435 515 850 557 923 43 72 84 132 91 132 7 0 18 14 24 30 5 17 13 30 17
30 4 0 28 -12 52 -26z m-6347 -1664 c24 0 54 -13 100 -44 95 -64 614 -381
1179 -721 960 -578 948 -570 1053 -673 67 -66 70 -61 -66 -106 -115 -37 -256
-44 -1132 -56 -423 -6 -905 -15 -1070 -20 -393 -13 -592 -13 -600 0 -3 6 -19
10 -35 10 -60 0 -73 71 -49 260 24 198 111 527 205 781 76 207 106 270 168
358 29 42 77 118 106 169 l52 94 27 -26 c18 -18 38 -26 62 -26z m7886 -12 c12
-13 35 -50 51 -83 65 -128 158 -270 175 -267 11 2 20 -11 30 -45 8 -26 45
-145 82 -263 82 -263 156 -553 184 -719 25 -147 25 -161 7 -198 -8 -15 -18
-36 -21 -47 -5 -16 -12 -18 -52 -12 -37 5 -48 3 -58 -11 -12 -16 -32 -16 -356
0 -465 24 -711 33 -1544 57 -390 11 -767 25 -838 30 -117 10 -289 48 -310 69
-13 13 96 106 218 186 61 41 265 159 455 263 349 191 1466 821 1704 960 82 48
131 72 134 64 6 -19 27 -14 52 13 29 31 60 32 87 3z m-3867 -1706 c30 -12 71
-35 91 -52 36 -29 37 -31 28 -72 -27 -125 -116 -234 -237 -291 -63 -30 -73
-32 -182 -32 -109 0 -119 2 -182 32 -75 35 -76 36 -57 125 31 144 125 247 274
301 66 23 188 18 265 -11z m-4145 -442 c259 -10 870 -23 1680 -35 388 -6 508
-13 697 -42 l107 -16 -18 -26 c-29 -40 -128 -132 -201 -185 -62 -46 -305 -193
-655 -396 -160 -93 -1213 -733 -1505 -914 -108 -68 -161 -95 -176 -92 -13 4
-35 -5 -61 -24 -35 -26 -42 -28 -53 -15 -7 8 -19 15 -26 15 -8 0 -14 1 -14 3
0 1 -14 35 -30 76 -40 98 -163 507 -195 648 -41 185 -94 511 -105 654 -14 191
-14 199 10 199 17 0 20 7 20 53 0 71 9 99 29 93 61 -16 71 -16 88 3 14 17 26
19 77 15 34 -2 183 -9 331 -14z m8529 -41 c3 -3 9 -38 12 -77 6 -61 10 -72 25
-72 24 0 24 -33 4 -180 -68 -492 -135 -767 -277 -1145 -90 -238 -101 -261
-132 -269 -14 -3 -26 -11 -26 -16 0 -15 -38 -50 -54 -50 -8 0 -28 12 -45 26
-22 19 -35 23 -44 16 -9 -7 -88 38 -287 165 -262 167 -1714 1067 -1945 1205
-135 81 -258 172 -348 258 l-69 64 39 13 c73 26 198 55 263 62 78 8 2876 8
2884 0z m-5664 -736 c0 -5 -8 -46 -17 -93 -20 -104 -57 -170 -713 -1300 -249
-429 -500 -883 -500 -906 0 -13 -15 -41 -33 -61 -39 -45 -187 -302 -187 -326
0 -11 -8 -17 -25 -17 -20 0 -26 -7 -35 -39 -14 -52 -26 -59 -92 -54 -55 5 -61
8 -205 126 -290 238 -635 608 -842 904 -78 112 -90 135 -80 150 9 15 5 28 -21
70 -47 75 -31 111 55 125 12 2 21 12 23 25 3 18 53 48 255 151 347 179 564
297 817 444 118 68 348 196 510 283 162 87 370 200 462 251 270 151 416 221
533 255 66 19 95 23 95 12z m2374 -77 c28 -13 301 -167 606 -343 1070 -617
1802 -1033 1854 -1053 17 -6 26 -16 24 -27 -2 -13 9 -22 40 -32 37 -14 42 -19
42 -46 0 -17 -7 -40 -15 -51 -18 -24 -19 -51 -2 -57 25 -8 -192 -290 -383
-495 -198 -215 -401 -397 -640 -574 -63 -48 -124 -95 -135 -106 -18 -17 -23
-17 -41 -5 -19 12 -26 12 -54 -6 -43 -26 -74 -12 -100 46 -10 24 -26 43 -34
43 -11 0 -54 76 -127 223 -61 122 -153 299 -204 392 -50 94 -163 305 -250 470
-87 165 -204 383 -260 485 -226 411 -445 824 -503 951 -37 79 -72 201 -72 247
0 19 5 18 101 -10 56 -16 125 -40 153 -52z m-855 -373 c104 -105 102 -102 633
-1033 441 -774 827 -1444 869 -1511 16 -26 27 -53 24 -60 -3 -8 6 -30 20 -49
33 -44 32 -65 -6 -102 -20 -21 -29 -38 -25 -50 4 -16 -6 -25 -52 -45 -185 -82
-376 -156 -507 -196 -319 -99 -668 -175 -684 -149 -5 9 -41 8 -164 -4 -177
-18 -273 -13 -310 16 -23 18 -24 23 -15 72 8 44 7 54 -7 64 -10 7 -14 21 -11
35 6 28 21 680 42 1829 8 454 19 877 25 939 9 104 43 303 55 323 11 17 29 5
113 -79z m-826 10 c33 -122 37 -214 42 -1138 3 -511 8 -1152 11 -1423 5 -391
4 -498 -6 -517 -8 -14 -11 -40 -7 -65 4 -32 1 -43 -13 -53 -20 -14 -31 -13
-300 18 -151 18 -175 18 -199 3 -15 -9 -41 -7 -128 11 -243 51 -561 157 -824
277 -68 30 -145 65 -172 76 -34 15 -46 25 -42 37 6 22 -3 34 -52 64 -23 14
-44 31 -48 36 -3 6 6 31 21 56 14 25 24 52 21 60 -4 8 53 111 130 237 75 123
177 293 227 378 51 85 115 189 142 230 74 110 241 383 505 825 268 449 381
631 454 730 53 72 195 215 213 215 5 0 16 -26 25 -57z"/>
</g>
</svg>
